<svg id="Layer_1" data-name="Layer 1" xmlns="http://www.w3.org/2000/svg" viewBox="0 0 2500 752"><defs><style>.cls-1{fill:#fff;}.cls-2{fill:#f3971b;}</style></defs><path class="cls-1" d="M561.24,184.47V417.18A14.22,14.22,0,0,1,547,431.4H473.56a14.22,14.22,0,0,1-14.22-14.22V38.67a14.22,14.22,0,0,1,14.22-14.22h68a14.22,14.22,0,0,1,14.22,14.22V92s24.3-76,96.42-76c0,0,71.33-8.62,100.33,70.55,0,0,24.31-70.55,98-70.55,0,0,109.58-6.51,109.58,106.87l.83,62.45V418a14.22,14.22,0,0,1-14.22,14.23H873.23A14.24,14.24,0,0,1,859,418l-.67-253.87c2.09-57.48-44.42-53.3-44.42-53.3-58.52,1-52.89,74.47-52.89,74.47V418a14.23,14.23,0,0,1-14.22,14.23H673.34A14.24,14.24,0,0,1,659.11,418V169.84s4.3-59.58-48-59.58C611.15,110.26,559.42,103.47,561.24,184.47Zm1893.56-.69v232.7a14.22,14.22,0,0,1-14.22,14.22l-76.4,1.48A14.22,14.22,0,0,1,2350,418V169.84s4.29-59.58-48-59.58c0,0-49.91-2.46-49.91,91v216a14.23,14.23,0,0,1-14.23,14.22H2164.4a14.22,14.22,0,0,1-14.22-14.22V38.67a14.22,14.22,0,0,1,14.22-14.22h68a14.22,14.22,0,0,1,14.22,14.22h0V92s24.3-76,96.42-76c0,0,77.25-11.72,103.27,69.08,0,0,8.51,16.66,8.51,98.76ZM1924.4,14.37c-93.94,0-170.1,79.17-170.1,212.43,0,117.33,58.79,212.43,170.1,212.43,105,0,170.1-95.1,170.1-212.43C2094.5,95.9,2018.35,14.37,1924.4,14.37Zm59.29,217.14c0,50.16-6.27,76.82-6.27,76.82-8.92,53-47.42,53.11-53.09,52.82-6.13.25-44.95-.3-53-52.82,0,0-6.27-26.66-6.27-76.82v-8.36c0-50.17,6.27-76.82,6.27-76.82,8-52.52,46.87-53.07,53-52.84,5.67-.28,44.17-.21,53.09,52.84,0,0,6.27,26.65,6.27,76.82Zm-272-140.06V37.14a14.23,14.23,0,0,0-14.23-14.22H1454.63a14.22,14.22,0,0,0-14.22,14.22h0V91a14.22,14.22,0,0,0,14.22,14.22h126.65L1431.37,322.73s-5.91,8.82-5.71,18.56v66.15s-1,22.68,24.74,9.52c0,0,45.69-27.61,122.31-27.61,0,0,75.66-.94,126.1,30,0,0,20.94,9.52,20.94-11.42V350.34s1.9-15.24-18.09-24.75c0,0-58.05-31.88-134.19-26.65Zm-1309,272.26-23-35c-7.32-13.07-6.79-27.71-6.79-27.71V139.53C376,0,221.3,12,221.3,12,83.79,12,63.48,119,63.48,119c-5.73,21.51,10.94,22,10.94,22l67.19,6.82s11.46,2.62,15.63-11c0,0,8.85-46.69,58.33-46.69,53.85,0,53.29,46.21,53.29,46.21v38.69c-107.49,3.59-157.3,33.43-157.3,33.43C45.2,246.14,49.37,320.87,49.37,320.87c0,121.76,116,116.53,116,116.53,74.2,0,118.1-54.35,118.1-54.35,13.06,23,37.1,44.94,37.1,44.94,12,13,24.57,2.09,24.57,2.09l54.35-46.5C411.52,374.69,402.64,363.71,402.64,363.71Zm-201-1.5c-34.9,0-47.88-34.69-42.08-68.78s35.92-60.88,109.34-60.09v20.72c2.61,90.54-38.21,108.15-67.26,108.15Zm1177.23,1.5-23-35c-7.32-13.07-6.8-27.71-6.8-27.71V139.53C1352.17,0,1197.49,12,1197.49,12,1060,12,1039.66,119,1039.66,119c-5.73,21.51,10.94,22,10.94,22l67.19,6.82s11.46,2.62,15.63-11c0,0,8.85-46.69,58.33-46.69,53.85,0,53.29,46.21,53.29,46.21v38.69c-107.48,3.59-157.3,33.43-157.3,33.43-66.36,37.63-62.19,112.36-62.19,112.36,0,121.76,116,116.53,116,116.53,74.2,0,118.1-54.35,118.1-54.35,13.07,23,37.1,44.94,37.1,44.94,12,13,24.57,2.09,24.57,2.09l54.34-46.5c12-8.89,3.15-19.87,3.15-19.87Zm-201-1.5c-34.9,0-47.88-34.69-42.08-68.78s35.92-60.88,109.34-60.09v20.72c2.61,90.54-38.2,108.15-67.26,108.15Z"/><path class="cls-2" d="M1563.79,669.35s-6.14,10.69,1.41,13.08c0,0,8.53,3.33,19.16-6.54,0,0,77.57-67.76,79.44-191.12,0,0,.57-15.41-5.61-19.62,0,0-24.3-21.5-111.68-15,0,0-76.17,5.14-117.76,42.06,0,0-3.73,3.27-3.73,7.47,0,0-.9,9.07,22,5.14,0,0,76.16-10.75,121.49-5.14,0,0,23.37,2.8,29.91,10.75,0,0,10.75,8.88,5.14,38.31,0,0-15.43,74.78-39.73,120.57Z"/><path class="cls-2" d="M1548.44,551s11.37,14.73-7,27.44c0,0-196.08,156.84-525.31,156.84,0,0-338.89,16.72-621.87-240.39,0,0-9.92-8.71-3.77-16.81,0,0,5.51-7.45,19.76.65,0,0,266.2,165.88,615.81,165.88,0,0,243,9.41,492.27-97.2,0,0,19.87-10.29,30.09,3.59Z"/></svg>