<svg id="Layer_1" data-name="Layer 1" xmlns="http://www.w3.org/2000/svg" viewBox="0 0 100 50"><defs><style>.cls-1{fill:#1372ff;}.cls-2{fill:#fff;}</style></defs><path class="cls-1" d="M22.84,45.21c-12.06,0-19.71-7.65-19.71-19.71h0c0-12.06,8.71-19.71,20.77-19.71H50V3.66H21.5A20.5,20.5,0,0,0,1,24.16v2.68a20.5,20.5,0,0,0,20.5,20.5H50V45.21Z"/><path class="cls-1" d="M78.5,3.66H50V5.79H76.1c12.06,0,20.77,7.65,20.77,19.71h0c0,12.06-8.71,19.71-20.77,19.71H50v2.13H78.5A20.5,20.5,0,0,0,99,26.84V24.16A20.5,20.5,0,0,0,78.5,3.66Z"/><path class="cls-1" d="M76.1,45.21c12.06,0,20.77-7.65,20.77-19.71h0c0-12.06-8.71-19.71-20.77-19.71H54L46,45.21Z"/><path class="cls-1" d="M78.5,3.66h-57A20.5,20.5,0,0,0,1,24.16v2.68a20.5,20.5,0,0,0,20.5,20.5h57A20.5,20.5,0,0,0,99,26.84V24.16A20.5,20.5,0,0,0,78.5,3.66ZM96.87,25.5c0,12.06-8.71,19.71-20.77,19.71H23.9c-12.06,0-20.77-7.65-20.77-19.71h0c0-12.06,8.71-19.71,20.77-19.71H77.16c12.06,0,19.71,7.65,19.71,19.71Z"/><path class="cls-2" d="M23.9,5.79C11.84,5.79,3.13,13.44,3.13,25.5h0c0,12.06,8.71,19.71,20.77,19.71H46L54,5.79Z"/><polygon class="cls-2" points="78 30.22 74.12 26.34 79 21.46 79 17.22 72 24.22 65 17.22 65 21.46 69.88 26.34 66 30.22 63.44 32.78 66 32.78 67.69 32.78 72 28.46 76.31 32.78 78 32.78 80.56 32.78 78 30.22"/><polygon class="cls-1" points="35.88 17.64 25.16 28.37 21.04 24.25 19.01 26.27 23.13 30.39 25.09 32.36 37.85 19.61 35.88 17.64"/></svg>